<?xml version="1.0" encoding="utf-8"?>
<!-- Generator: Adobe Illustrator 17.1.0, SVG Export Plug-In . SVG Version: 6.00 Build 0)  -->
<!DOCTYPE svg PUBLIC "-//W3C//DTD SVG 1.1//EN" "http://www.w3.org/Graphics/SVG/1.1/DTD/svg11.dtd">
<svg version="1.1" id="Layer_1" xmlns="http://www.w3.org/2000/svg" xmlns:xlink="http://www.w3.org/1999/xlink" x="0px" y="0px"
	 viewBox="0 0 40 40" style="enable-background:new 0 0 40 40;" xml:space="preserve">
<g>
	<path d="M32.2,29.3l-2.9,2.9c-0.4,0.4-0.9,0.6-1.5,0.6c-0.5,0-1.1-0.2-1.5-0.6L20,25.9l-6.3,6.3c-0.4,0.4-0.9,0.6-1.5,0.6
		s-1.1-0.2-1.5-0.6l-2.9-2.9c-0.4-0.4-0.6-0.9-0.6-1.5c0-0.5,0.2-1.1,0.6-1.5l6.3-6.3l-6.3-6.3c-0.4-0.4-0.6-0.9-0.6-1.5
		s0.2-1.1,0.6-1.5l2.9-2.9c0.4-0.4,0.9-0.6,1.5-0.6s1.1,0.2,1.5,0.6l6.3,6.3l6.3-6.3c0.4-0.4,0.9-0.6,1.5-0.6c0.5,0,1.1,0.2,1.5,0.6
		l2.9,2.9c0.4,0.4,0.6,0.9,0.6,1.5s-0.2,1.1-0.6,1.5L25.9,20l6.3,6.3c0.4,0.4,0.6,0.9,0.6,1.5C32.8,28.4,32.6,28.9,32.2,29.3z"/>
</g>
</svg>
