<?xml version="1.0" encoding="utf-8"?>
<!-- Generator: Adobe Illustrator 17.1.0, SVG Export Plug-In . SVG Version: 6.00 Build 0)  -->
<!DOCTYPE svg PUBLIC "-//W3C//DTD SVG 1.1//EN" "http://www.w3.org/Graphics/SVG/1.1/DTD/svg11.dtd">
<svg version="1.1" id="Layer_1" xmlns="http://www.w3.org/2000/svg" xmlns:xlink="http://www.w3.org/1999/xlink" x="0px" y="0px"
	 viewBox="0 0 275 75" style="enable-background:new 0 0 275 75;" xml:space="preserve">
<style type="text/css">
	.st0{fill:#5279BB;}
	.st1{fill:#262261;}
	.st2{fill:#231F20;}
	.st3{fill:none;stroke:#231F20;stroke-miterlimit:10;}
</style>
<g>
	<path class="st0" d="M6.4,58.4c-0.3,0-0.5-0.1-0.6-0.3c-0.1-0.2-0.1-0.4-0.1-0.6V41.8c0-0.2,0-0.4,0.1-0.6c0.1-0.3,0.3-0.4,0.6-0.4
		c0.1,0,0.1,0,0.2,0.1c0,0,0.1,0.1,0.2,0.1C6.8,41,6.9,41,6.9,41c0,0,0.1,0,0.2,0.1l10.7,6.1l0.9,0.6v3.6L7.1,58.2
		c-0.1,0-0.2,0-0.2,0.1H6.4z"/>
	<path class="st0" d="M7.4,40.3C7,40,6.9,39.8,6.9,39.5c0-0.3,0.2-0.6,0.6-0.8l13.5-7.8c0.5-0.2,1-0.3,1.7-0.3
		c0.8,0,1.4,0.1,1.8,0.3l13.5,7.8c0.4,0.2,0.6,0.5,0.6,0.8c0,0.3-0.2,0.6-0.6,0.8l-11.7,6.7l-3.6-2.2l-3.5,2.2L7.4,40.3z"/>
	<path class="st0" d="M37.9,59c0.4,0.2,0.6,0.5,0.6,0.8c0,0.3-0.2,0.6-0.6,0.8l-13.5,7.7c-0.6,0.3-1.2,0.5-1.8,0.5
		c-0.5,0-1.1-0.2-1.7-0.5L7.4,60.6c-0.4-0.2-0.6-0.5-0.6-0.8c0-0.3,0.2-0.6,0.6-0.8l11.7-6.8l3.5,2l3.6-2L37.9,59z"/>
	<path class="st1" d="M24.4,28c-0.3,0-0.5-0.1-0.6-0.3c-0.1-0.2-0.1-0.4-0.1-0.6V11.5c0-0.2,0-0.4,0.1-0.6c0.1-0.3,0.3-0.4,0.6-0.4
		c0.1,0,0.1,0,0.2,0.1c0,0,0.1,0.1,0.2,0.1c0.1,0.1,0.1,0.1,0.2,0.1c0,0,0.1,0,0.2,0.1l10.7,6.1l1,0.7v3.5L25,27.9
		c-0.1,0-0.2,0-0.2,0.1H24.4z"/>
	<path class="st1" d="M25.4,10.1c-0.4-0.2-0.6-0.5-0.6-0.8c0-0.3,0.2-0.6,0.6-0.8l13.5-7.8c0.5-0.2,1-0.3,1.7-0.3
		c0.8,0,1.4,0.1,1.8,0.3l13.5,7.8c0.4,0.2,0.6,0.5,0.6,0.8c0,0.3-0.2,0.6-0.6,0.8l-11.6,6.6l-3.6-2l-3.6,2.2L25.4,10.1z"/>
	<path class="st1" d="M25.4,30.2c-0.4-0.2-0.6-0.5-0.6-0.8c0-0.3,0.2-0.6,0.6-0.8l11.8-6.8l3.1,1.8v13.5c0,0.5,0.1,0.9,0.3,1.2
		c-0.5,0-1.1-0.2-1.7-0.5L25.4,30.2z"/>
	<path class="st1" d="M25.4,50.4c-0.4-0.2-0.6-0.5-0.6-0.8c0-0.3,0.2-0.6,0.6-0.8L38.9,41c0.3-0.2,0.8-0.3,1.5-0.3
		c-0.1,0.2-0.1,0.6-0.1,1v15.5c0,0.6,0.1,1.1,0.3,1.4c-0.5,0-1.1-0.2-1.7-0.5L25.4,50.4z"/>
	<path class="st1" d="M56.2,10.8c0.3-0.2,0.5-0.2,0.7-0.2c0.4,0,0.6,0.1,0.6,0.4c0,0.3,0.1,0.5,0.1,0.6v15.5c0,0.5-0.2,1.1-0.5,1.7
		c-0.3,0.6-0.7,1.1-1.2,1.4l-13.5,7.7c-0.3,0.2-0.5,0.2-0.7,0.2c-0.3,0-0.5-0.1-0.6-0.4c-0.1-0.3-0.1-0.5-0.1-0.6V23.7l3.6-2.2v-4.1
		L56.2,10.8z"/>
	<path class="st1" d="M41.7,58.2c-0.3,0-0.5-0.1-0.6-0.3c-0.1-0.2-0.1-0.4-0.1-0.6V41.7c0-0.1,0-0.4,0.1-0.6
		c0.1-0.3,0.3-0.4,0.6-0.4c0.1,0,0.1,0,0.2,0.1c0,0,0.1,0.1,0.2,0.1c0.1,0.1,0.1,0.1,0.2,0.1c0,0,0.1,0,0.2,0.1l10.7,6.1l0.9,0.6
		v3.6l-11.6,6.8c-0.1,0-0.2,0-0.2,0.1H41.7z"/>
	<path class="st0" d="M73.2,59c0.4,0.2,0.6,0.5,0.6,0.8c0,0.3-0.2,0.6-0.6,0.8l-13.5,7.7c-0.6,0.3-1.2,0.5-1.8,0.5
		c-0.5,0-1.1-0.2-1.7-0.5l-13.5-7.7c-0.4-0.2-0.6-0.5-0.6-0.8c0-0.3,0.2-0.6,0.6-0.8l11.7-6.8l3.5,2l3.6-2L73.2,59z"/>
	<path class="st1" d="M42.3,39.9c-0.2-0.3-0.2-0.5,0-0.7c0.2-0.2,0.3-0.3,0.4-0.4l13.4-8c0.1-0.1,0.3-0.2,0.6-0.2
		c0.3-0.1,0.5,0,0.6,0.3c0,0.1,0,0.1,0,0.2c0,0.1,0,0.1,0,0.2c0,0.1,0,0.2,0,0.2c0,0,0,0.1,0,0.2l0.2,12.3l0,1.1l-3.1,1.9l-11.7-6.5
		c0-0.1-0.1-0.1-0.2-0.1L42.3,39.9z"/>
	<path class="st0" d="M58.7,31c0.2-0.3,0.3-0.4,0.6-0.3c0.2,0,0.4,0.1,0.5,0.2l13.6,7.8c0.1,0.1,0.3,0.2,0.5,0.4
		c0.2,0.2,0.2,0.4,0.1,0.7c0,0.1-0.1,0.1-0.1,0.1c-0.1,0-0.1,0.1-0.1,0.1c-0.1,0-0.2,0.1-0.2,0.1c0,0-0.1,0.1-0.2,0.1l-10.6,6.2
		l-0.9,0.5L58.6,45l-0.2-13.4c0-0.1,0-0.2,0-0.3L58.7,31z"/>
	<g>
		<path class="st1" d="M90.6,17.8c1.8,0,3.4,0.9,4.4,1.9l-2.1,2.4c-0.7-0.6-1.3-1-2.3-1c-1.7,0-3.2,1.6-3.2,4.2
			c0,2.7,1.2,4.2,3.1,4.2c1.1,0,1.9-0.5,2.5-1.2l2.1,2.3c-1.2,1.4-2.9,2.1-4.7,2.1c-3.8,0-7-2.4-7-7.4
			C83.5,20.6,86.9,17.8,90.6,17.8z"/>
		<path class="st1" d="M101.9,25.4c-0.1-0.8-0.6-1.2-1.6-1.2c-0.8,0-1.6,0.3-2.8,0.9l-1.3-2.5c1.6-0.9,3.2-1.5,4.9-1.5
			c2.9,0,4.6,1.6,4.6,5.2v6.2h-3.1l-0.3-1.1h-0.1c-0.9,0.8-1.9,1.3-3.1,1.3c-2.1,0-3.3-1.6-3.3-3.4C95.9,27.1,97.6,25.8,101.9,25.4z
			 M100.5,29.9c0.6,0,1-0.3,1.4-0.8v-1.5c-1.8,0.3-2.4,0.8-2.4,1.5C99.5,29.6,99.9,29.9,100.5,29.9z"/>
		<path class="st1" d="M108.4,28.9c1,0.8,1.9,1.1,2.7,1.1c0.8,0,1.1-0.2,1.1-0.7c0-0.6-1-0.8-2.1-1.3c-1.3-0.5-2.8-1.5-2.8-3.3
			c0-2.2,1.8-3.6,4.4-3.6c1.8,0,3.1,0.7,4.1,1.5l-1.7,2.3c-0.8-0.6-1.6-0.9-2.3-0.9c-0.6,0-1,0.2-1,0.6c0,0.6,1,0.8,2.1,1.2
			c1.3,0.5,2.8,1.3,2.8,3.3c0,2.1-1.6,3.7-4.8,3.7c-1.4,0-3.2-0.6-4.3-1.6L108.4,28.9z"/>
		<path class="st1" d="M117.5,24.4H116v-2.8l1.7-0.1l0.4-2.9h3.2v2.9h2.5v3h-2.5v3.8c0,1.2,0.6,1.6,1.3,1.6c0.4,0,0.7-0.1,1-0.2
			l0.6,2.8c-0.6,0.2-1.4,0.4-2.6,0.4c-2.9,0-4.1-1.8-4.1-4.5V24.4z"/>
		<path class="st1" d="M125.2,17.1h3.8v11.7c0,0.8,0.4,1,0.6,1c0.1,0,0.2,0,0.4,0l0.4,2.8c-0.4,0.2-1,0.3-1.9,0.3
			c-2.6,0-3.4-1.7-3.4-4.2V17.1z"/>
		<path class="st1" d="M136,21.2c3.3,0,4.9,2.4,4.9,5.4c0,0.7-0.1,1.2-0.2,1.5h-6.3c0.4,1.4,1.3,1.9,2.6,1.9c0.8,0,1.5-0.2,2.3-0.7
			l1.2,2.3c-1.2,0.8-2.8,1.3-4.1,1.3c-3.3,0-5.7-2.1-5.7-5.8C130.6,23.4,133.3,21.2,136,21.2z M137.6,25.8c0-0.9-0.4-1.7-1.5-1.7
			c-0.8,0-1.6,0.5-1.8,1.7H137.6z"/>
		<path class="st1" d="M143,32.3L143,32.3c-0.6-0.5-1-1.1-1-2c0-0.8,0.5-1.6,1.2-2.1v-0.1c-0.8-0.5-1.5-1.6-1.5-2.8
			c0-2.8,2.3-4.1,4.8-4.1c0.6,0,1.2,0.1,1.8,0.3h4.1v2.8h-1.6c0.1,0.3,0.2,0.7,0.2,1.2c0,2.6-2,3.7-4.5,3.7c-0.4,0-0.8,0-1.2-0.2
			c-0.2,0.2-0.3,0.3-0.3,0.6c0,0.5,0.4,0.7,1.6,0.7h1.7c2.8,0,4.4,0.8,4.4,2.9c0,2.4-2.5,4.1-6.5,4.1c-2.5,0-4.7-0.8-4.7-2.8
			C141.4,33.5,141.9,32.8,143,32.3z M146.7,34.8c1.2,0,2.2-0.4,2.2-1c0-0.6-0.5-0.7-1.5-0.7h-0.9c-0.9,0-1.3,0-1.6-0.1
			c-0.3,0.3-0.4,0.5-0.4,0.8C144.5,34.5,145.4,34.8,146.7,34.8z M147.6,25.2c0-1-0.5-1.5-1.2-1.5s-1.2,0.5-1.2,1.5
			c0,1.1,0.5,1.6,1.2,1.6S147.6,26.3,147.6,25.2z"/>
		<path class="st1" d="M153.5,17.1h3.8v11.7c0,0.8,0.4,1,0.6,1c0.1,0,0.2,0,0.4,0l0.4,2.8c-0.4,0.2-1,0.3-1.9,0.3
			c-2.6,0-3.4-1.7-3.4-4.2V17.1z"/>
		<path class="st1" d="M164.3,21.2c3.3,0,4.9,2.4,4.9,5.4c0,0.7-0.1,1.2-0.2,1.5h-6.3c0.4,1.4,1.3,1.9,2.6,1.9
			c0.8,0,1.5-0.2,2.3-0.7l1.2,2.3c-1.2,0.8-2.8,1.3-4.1,1.3c-3.3,0-5.7-2.1-5.7-5.8C158.9,23.4,161.5,21.2,164.3,21.2z M165.9,25.8
			c0-0.9-0.4-1.7-1.5-1.7c-0.8,0-1.6,0.5-1.8,1.7H165.9z"/>
		<path class="st1" d="M170.5,21.4h3.1l0.3,1.3h0.1c0.9-0.8,2-1.6,3.5-1.6c2.4,0,3.5,1.8,3.5,4.5v6.9h-3.8v-6.4
			c0-1.4-0.4-1.8-1.1-1.8c-0.7,0-1.1,0.3-1.7,0.8v7.3h-3.8V21.4z"/>
		<path class="st1" d="M182.8,21.4h3.1l0.3,1.3h0.1c0.9-0.8,2-1.6,3.5-1.6c2.4,0,3.5,1.8,3.5,4.5v6.9h-3.8v-6.4
			c0-1.4-0.4-1.8-1.1-1.8c-0.7,0-1.1,0.3-1.7,0.8v7.3h-3.8V21.4z"/>
		<path class="st1" d="M90.6,40.3c1.8,0,3.4,0.9,4.4,1.9l-2.1,2.4c-0.7-0.6-1.3-1-2.3-1c-1.7,0-3.2,1.6-3.2,4.2
			c0,2.7,1.2,4.2,3.1,4.2c1.1,0,1.9-0.5,2.5-1.2l2.1,2.3c-1.2,1.4-2.9,2.1-4.7,2.1c-3.8,0-7-2.4-7-7.4
			C83.5,43.1,86.9,40.3,90.6,40.3z"/>
		<path class="st1" d="M101.2,43.7c2.8,0,5.5,2.1,5.5,5.8s-2.7,5.8-5.5,5.8c-2.8,0-5.5-2.1-5.5-5.8S98.3,43.7,101.2,43.7z
			 M101.2,52.3c1.2,0,1.6-1.1,1.6-2.8s-0.4-2.8-1.6-2.8c-1.2,0-1.6,1.1-1.6,2.8S100,52.3,101.2,52.3z"/>
		<path class="st1" d="M108,43.9h3.1l0.3,1.3h0.1c0.9-0.8,2-1.6,3.5-1.6c2.4,0,3.5,1.8,3.5,4.5v6.9h-3.8v-6.4c0-1.4-0.4-1.8-1.1-1.8
			c-0.7,0-1.1,0.3-1.7,0.8v7.3H108V43.9z"/>
		<path class="st1" d="M121.1,51.4c1,0.8,1.9,1.1,2.7,1.1c0.8,0,1.1-0.2,1.1-0.7c0-0.6-1-0.8-2.1-1.3c-1.3-0.5-2.8-1.5-2.8-3.3
			c0-2.2,1.8-3.6,4.4-3.6c1.8,0,3.1,0.7,4.1,1.5l-1.7,2.3c-0.8-0.6-1.6-0.9-2.3-0.9c-0.6,0-1,0.2-1,0.6c0,0.6,1,0.8,2.1,1.2
			c1.3,0.5,2.8,1.3,2.8,3.3c0,2.1-1.6,3.7-4.8,3.7c-1.4,0-3.2-0.6-4.3-1.6L121.1,51.4z"/>
		<path class="st1" d="M129.6,43.9h3.8v6.4c0,1.4,0.4,1.8,1.1,1.8c0.7,0,1.1-0.3,1.6-1v-7.2h3.8v11.1h-3.1l-0.3-1.5h-0.1
			c-0.9,1.1-1.9,1.7-3.4,1.7c-2.4,0-3.5-1.8-3.5-4.5V43.9z"/>
		<path class="st1" d="M141.9,39.6h3.8v11.7c0,0.8,0.4,1,0.6,1c0.1,0,0.2,0,0.4,0l0.4,2.8c-0.4,0.2-1,0.3-1.9,0.3
			c-2.6,0-3.4-1.7-3.4-4.2V39.6z"/>
		<path class="st1" d="M148.4,46.9h-1.5v-2.8l1.7-0.1L149,41h3.2v2.9h2.5v3h-2.5v3.8c0,1.2,0.6,1.6,1.3,1.6c0.4,0,0.7-0.1,1-0.2
			l0.6,2.8c-0.6,0.2-1.4,0.4-2.6,0.4c-2.9,0-4.1-1.8-4.1-4.5V46.9z"/>
		<path class="st1" d="M161.6,47.8c-0.1-0.8-0.6-1.2-1.6-1.2c-0.8,0-1.6,0.3-2.8,0.9l-1.3-2.5c1.6-0.9,3.2-1.5,4.9-1.5
			c2.9,0,4.6,1.6,4.6,5.2v6.2h-3.1L162,54h-0.1c-0.9,0.8-1.9,1.3-3.1,1.3c-2.1,0-3.3-1.6-3.3-3.4C155.5,49.6,157.3,48.3,161.6,47.8z
			 M160.2,52.4c0.6,0,1-0.3,1.4-0.8v-1.5c-1.8,0.3-2.4,0.8-2.4,1.5C159.2,52.1,159.5,52.4,160.2,52.4z"/>
		<path class="st1" d="M167.3,43.9h3.1l0.3,1.3h0.1c0.9-0.8,2-1.6,3.5-1.6c2.4,0,3.5,1.8,3.5,4.5v6.9h-3.8v-6.4
			c0-1.4-0.4-1.8-1.1-1.8c-0.7,0-1.1,0.3-1.7,0.8v7.3h-3.8V43.9z"/>
		<path class="st1" d="M180.1,46.9h-1.5v-2.8l1.7-0.1l0.4-2.9h3.2v2.9h2.5v3h-2.5v3.8c0,1.2,0.6,1.6,1.3,1.6c0.4,0,0.7-0.1,1-0.2
			l0.6,2.8c-0.6,0.2-1.4,0.4-2.6,0.4c-2.9,0-4.1-1.8-4.1-4.5V46.9z"/>
		<path class="st1" d="M188.6,51.4c1,0.8,1.9,1.1,2.7,1.1c0.8,0,1.1-0.2,1.1-0.7c0-0.6-1-0.8-2.1-1.3c-1.3-0.5-2.8-1.5-2.8-3.3
			c0-2.2,1.8-3.6,4.4-3.6c1.8,0,3.1,0.7,4.1,1.5l-1.7,2.3c-0.8-0.6-1.6-0.9-2.3-0.9c-0.6,0-1,0.2-1,0.6c0,0.6,1,0.8,2.1,1.2
			c1.3,0.5,2.8,1.3,2.8,3.3c0,2.1-1.6,3.7-4.8,3.7c-1.4,0-3.2-0.6-4.3-1.6L188.6,51.4z"/>
	</g>
	<g>
		<path class="st2" d="M83.4,64.8h4.1v1h-2.9v1.7h2.4v1h-2.4v2h3v1h-4.2V64.8z"/>
		<path class="st2" d="M88.9,66.5h1l0.1,0.7h0c0.5-0.4,1-0.8,1.7-0.8c1.1,0,1.6,0.7,1.6,2v3.2H92v-3c0-0.8-0.2-1.2-0.8-1.2
			c-0.4,0-0.7,0.2-1.2,0.6v3.6h-1.2V66.5z"/>
		<path class="st2" d="M95.1,71.4L95.1,71.4c-0.3-0.2-0.5-0.5-0.5-0.9c0-0.4,0.3-0.7,0.6-0.9v0c-0.3-0.3-0.7-0.7-0.7-1.4
			c0-1.2,0.9-1.8,2-1.8c0.3,0,0.5,0.1,0.7,0.1h1.8v0.9h-0.9c0.2,0.2,0.3,0.5,0.3,0.9c0,1.1-0.9,1.7-1.9,1.7c-0.2,0-0.5,0-0.7-0.1
			c-0.2,0.1-0.2,0.3-0.2,0.5c0,0.3,0.2,0.5,0.8,0.5h0.9c1.2,0,1.9,0.4,1.9,1.3c0,1-1.1,1.8-2.7,1.8c-1.2,0-2.1-0.4-2.1-1.3
			C94.3,72.1,94.6,71.7,95.1,71.4z M96.7,73.1c0.8,0,1.4-0.4,1.4-0.8c0-0.4-0.3-0.5-0.9-0.5h-0.7c-0.3,0-0.5,0-0.7-0.1
			c-0.3,0.2-0.4,0.4-0.4,0.7C95.3,72.8,95.8,73.1,96.7,73.1z M97.4,68.2c0-0.6-0.4-1-0.9-1s-0.9,0.4-0.9,1c0,0.7,0.4,1,0.9,1
			C97,69.2,97.4,68.9,97.4,68.2z"/>
		<path class="st2" d="M100,64.9c0-0.4,0.3-0.7,0.7-0.7s0.7,0.3,0.7,0.7c0,0.4-0.3,0.7-0.7,0.7S100,65.3,100,64.9z M100.1,66.5h1.2
			v5.1h-1.2V66.5z"/>
		<path class="st2" d="M102.8,66.5h1l0.1,0.7h0c0.5-0.4,1-0.8,1.7-0.8c1.1,0,1.6,0.7,1.6,2v3.2H106v-3c0-0.8-0.2-1.2-0.8-1.2
			c-0.4,0-0.7,0.2-1.2,0.6v3.6h-1.2V66.5z"/>
		<path class="st2" d="M110.7,66.4c1.4,0,2.1,1,2.1,2.4c0,0.2,0,0.4-0.1,0.6h-3.2c0.1,0.9,0.7,1.4,1.5,1.4c0.4,0,0.8-0.1,1.2-0.4
			l0.4,0.7c-0.5,0.3-1.1,0.6-1.7,0.6c-1.4,0-2.5-1-2.5-2.7C108.3,67.4,109.5,66.4,110.7,66.4z M111.8,68.6c0-0.8-0.3-1.3-1-1.3
			c-0.6,0-1.1,0.4-1.2,1.3H111.8z"/>
		<path class="st2" d="M116,66.4c1.4,0,2.1,1,2.1,2.4c0,0.2,0,0.4-0.1,0.6h-3.2c0.1,0.9,0.7,1.4,1.5,1.4c0.4,0,0.8-0.1,1.2-0.4
			l0.4,0.7c-0.5,0.3-1.1,0.6-1.7,0.6c-1.4,0-2.5-1-2.5-2.7C113.6,67.4,114.8,66.4,116,66.4z M117,68.6c0-0.8-0.3-1.3-1-1.3
			c-0.6,0-1.1,0.4-1.2,1.3H117z"/>
		<path class="st2" d="M119.2,66.5h1l0.1,0.9h0c0.4-0.7,0.9-1,1.4-1c0.3,0,0.4,0,0.6,0.1l-0.2,1c-0.2-0.1-0.3-0.1-0.5-0.1
			c-0.4,0-0.9,0.3-1.2,1.1v3.1h-1.2V66.5z"/>
		<path class="st2" d="M123,70.3c0.5,0.4,0.9,0.6,1.4,0.6c0.6,0,0.8-0.3,0.8-0.6c0-0.4-0.6-0.6-1.1-0.8c-0.7-0.2-1.4-0.6-1.4-1.5
			c0-0.9,0.7-1.5,1.9-1.5c0.7,0,1.3,0.3,1.7,0.6l-0.6,0.7c-0.4-0.3-0.7-0.4-1.1-0.4c-0.5,0-0.7,0.2-0.7,0.6c0,0.4,0.5,0.6,1.1,0.8
			c0.7,0.3,1.5,0.6,1.5,1.6c0,0.9-0.7,1.6-2,1.6c-0.7,0-1.4-0.3-1.9-0.7L123,70.3z"/>
		<path class="st2" d="M127.2,72.8c0.7-0.3,1.1-0.7,1.1-1.3c0,0-0.1,0-0.1,0c-0.4,0-0.8-0.3-0.8-0.7c0-0.4,0.4-0.7,0.8-0.7
			c0.6,0,0.9,0.5,0.9,1.2c0,1-0.6,1.8-1.6,2.2L127.2,72.8z"/>
		<path class="st2" d="M132.6,64.8h2.3c1.5,0,2.6,0.5,2.6,2.1c0,1.5-1.1,2.2-2.6,2.2h-1.1v2.5h-1.2V64.8z M134.7,68.1
			c1,0,1.5-0.4,1.5-1.2c0-0.9-0.5-1.1-1.5-1.1h-1v2.4H134.7z"/>
		<path class="st2" d="M138.6,66.5h1l0.1,0.9h0c0.4-0.7,0.9-1,1.4-1c0.3,0,0.4,0,0.6,0.1l-0.2,1c-0.2-0.1-0.3-0.1-0.5-0.1
			c-0.4,0-0.9,0.3-1.2,1.1v3.1h-1.2V66.5z"/>
		<path class="st2" d="M144.5,66.4c1.3,0,2.4,1,2.4,2.7c0,1.7-1.2,2.7-2.4,2.7c-1.3,0-2.4-1-2.4-2.7C142,67.4,143.2,66.4,144.5,66.4
			z M144.5,70.8c0.7,0,1.2-0.7,1.2-1.7c0-1-0.5-1.7-1.2-1.7c-0.7,0-1.2,0.7-1.2,1.7C143.3,70.1,143.7,70.8,144.5,70.8z"/>
		<path class="st2" d="M148.1,66.5h1.2v5.4c0,1.1-0.4,1.9-1.6,1.9c-0.4,0-0.6-0.1-0.8-0.1l0.2-0.9c0.1,0,0.3,0.1,0.4,0.1
			c0.5,0,0.6-0.3,0.6-0.9V66.5z M148,64.9c0-0.4,0.3-0.7,0.7-0.7c0.4,0,0.7,0.3,0.7,0.7c0,0.4-0.3,0.7-0.7,0.7
			C148.3,65.6,148,65.3,148,64.9z"/>
		<path class="st2" d="M152.8,66.4c1.4,0,2.1,1,2.1,2.4c0,0.2,0,0.4-0.1,0.6h-3.2c0.1,0.9,0.7,1.4,1.5,1.4c0.4,0,0.8-0.1,1.2-0.4
			l0.4,0.7c-0.5,0.3-1.1,0.6-1.7,0.6c-1.4,0-2.5-1-2.5-2.7C150.5,67.4,151.6,66.4,152.8,66.4z M153.9,68.6c0-0.8-0.3-1.3-1-1.3
			c-0.6,0-1.1,0.4-1.2,1.3H153.9z"/>
		<path class="st2" d="M158.3,66.4c0.7,0,1.2,0.3,1.5,0.6l-0.6,0.8c-0.3-0.2-0.5-0.4-0.9-0.4c-0.8,0-1.4,0.7-1.4,1.7
			c0,1,0.6,1.7,1.4,1.7c0.4,0,0.8-0.2,1.1-0.4l0.5,0.8c-0.5,0.4-1.1,0.7-1.7,0.7c-1.4,0-2.5-1-2.5-2.7
			C155.8,67.4,157,66.4,158.3,66.4z"/>
		<path class="st2" d="M161.1,67.4h-0.7v-0.9l0.8-0.1l0.1-1.4h1v1.4h1.3v0.9h-1.3v2.4c0,0.6,0.2,0.9,0.7,0.9c0.2,0,0.4-0.1,0.5-0.1
			l0.2,0.9c-0.3,0.1-0.6,0.2-1,0.2c-1.2,0-1.6-0.7-1.6-1.9V67.4z"/>
		<path class="st2" d="M166.9,64.8h1.3l1.2,3.4l0.4,1.3h0l0.4-1.3l1.2-3.4h1.3v6.8h-1.1v-3.1c0-0.6,0.1-1.5,0.2-2.2h0l-0.6,1.6
			l-1.2,3.1h-0.6l-1.2-3.1l-0.5-1.6h0c0.1,0.6,0.1,1.5,0.1,2.2v3.1h-1.1V64.8z"/>
		<path class="st2" d="M177.3,68.3c0-0.5-0.2-1-0.9-1c-0.5,0-1,0.2-1.4,0.5l-0.4-0.8c0.6-0.4,1.3-0.7,2.1-0.7c1.3,0,1.9,0.8,1.9,2.2
			v3h-1l-0.1-0.6h0c-0.5,0.4-1,0.7-1.6,0.7c-0.9,0-1.5-0.6-1.5-1.5C174.3,69.1,175.2,68.6,177.3,68.3z M176.2,70.8
			c0.4,0,0.7-0.2,1.1-0.6v-1.1c-1.4,0.2-1.8,0.5-1.8,1.1C175.5,70.6,175.8,70.8,176.2,70.8z"/>
		<path class="st2" d="M180,66.5h1l0.1,0.7h0c0.5-0.4,1-0.8,1.7-0.8c1.1,0,1.6,0.7,1.6,2v3.2h-1.2v-3c0-0.8-0.2-1.2-0.8-1.2
			c-0.4,0-0.7,0.2-1.2,0.6v3.6H180V66.5z"/>
		<path class="st2" d="M188.6,68.3c0-0.5-0.2-1-0.9-1c-0.5,0-1,0.2-1.4,0.5l-0.4-0.8c0.6-0.4,1.3-0.7,2.1-0.7c1.3,0,1.9,0.8,1.9,2.2
			v3h-1l-0.1-0.6h0c-0.5,0.4-1,0.7-1.6,0.7c-0.9,0-1.5-0.6-1.5-1.5C185.6,69.1,186.5,68.6,188.6,68.3z M187.5,70.8
			c0.4,0,0.7-0.2,1.1-0.6v-1.1c-1.4,0.2-1.8,0.5-1.8,1.1C186.7,70.6,187,70.8,187.5,70.8z"/>
		<path class="st2" d="M191.6,71.4L191.6,71.4c-0.3-0.2-0.5-0.5-0.5-0.9c0-0.4,0.3-0.7,0.6-0.9v0c-0.3-0.3-0.7-0.7-0.7-1.4
			c0-1.2,0.9-1.8,2-1.8c0.3,0,0.5,0.1,0.7,0.1h1.8v0.9h-0.9c0.2,0.2,0.3,0.5,0.3,0.9c0,1.1-0.9,1.7-1.9,1.7c-0.2,0-0.5,0-0.7-0.1
			c-0.2,0.1-0.2,0.3-0.2,0.5c0,0.3,0.2,0.5,0.8,0.5h0.9c1.2,0,1.9,0.4,1.9,1.3c0,1-1.1,1.8-2.7,1.8c-1.2,0-2.1-0.4-2.1-1.3
			C190.9,72.1,191.1,71.7,191.6,71.4z M193.2,73.1c0.8,0,1.4-0.4,1.4-0.8c0-0.4-0.3-0.5-0.9-0.5H193c-0.3,0-0.5,0-0.7-0.1
			c-0.3,0.2-0.4,0.4-0.4,0.7C191.9,72.8,192.4,73.1,193.2,73.1z M194,68.2c0-0.6-0.4-1-0.9-1s-0.9,0.4-0.9,1c0,0.7,0.4,1,0.9,1
			C193.6,69.2,194,68.9,194,68.2z"/>
		<path class="st2" d="M198.5,66.4c1.4,0,2.1,1,2.1,2.4c0,0.2,0,0.4-0.1,0.6h-3.2c0.1,0.9,0.7,1.4,1.5,1.4c0.4,0,0.8-0.1,1.2-0.4
			l0.4,0.7c-0.5,0.3-1.1,0.6-1.7,0.6c-1.4,0-2.5-1-2.5-2.7C196.1,67.4,197.3,66.4,198.5,66.4z M199.6,68.6c0-0.8-0.3-1.3-1-1.3
			c-0.6,0-1.1,0.4-1.2,1.3H199.6z"/>
		<path class="st2" d="M201.7,66.5h1l0.1,0.9h0c0.4-0.7,0.9-1,1.4-1c0.3,0,0.4,0,0.6,0.1l-0.2,1c-0.2-0.1-0.3-0.1-0.5-0.1
			c-0.4,0-0.9,0.3-1.2,1.1v3.1h-1.2V66.5z"/>
		<path class="st2" d="M205.6,70.3c0.5,0.4,0.9,0.6,1.4,0.6c0.6,0,0.8-0.3,0.8-0.6c0-0.4-0.6-0.6-1.1-0.8c-0.7-0.2-1.4-0.6-1.4-1.5
			c0-0.9,0.7-1.5,1.9-1.5c0.7,0,1.3,0.3,1.7,0.6l-0.6,0.7c-0.4-0.3-0.7-0.4-1.1-0.4c-0.5,0-0.7,0.2-0.7,0.6c0,0.4,0.5,0.6,1.1,0.8
			c0.7,0.3,1.5,0.6,1.5,1.6c0,0.9-0.7,1.6-2,1.6c-0.7,0-1.4-0.3-1.9-0.7L205.6,70.3z"/>
		<path class="st2" d="M217.6,71.7c-0.5-0.1-1.1-0.4-1.7-0.7c-0.5,0.4-1.2,0.7-2.1,0.7c-1.4,0-2.2-0.8-2.2-1.9
			c0-0.9,0.6-1.5,1.3-1.9c-0.3-0.5-0.4-1-0.4-1.5c0-0.9,0.7-1.7,1.7-1.7c0.9,0,1.5,0.6,1.5,1.4c0,0.9-0.7,1.5-1.5,2
			c0.4,0.6,1,1.1,1.6,1.6c0.4-0.5,0.7-1.1,0.9-1.8h1.1c-0.2,0.9-0.6,1.7-1.2,2.4c0.4,0.3,0.9,0.5,1.2,0.5L217.6,71.7z M214,70.8
			c0.4,0,0.7-0.2,1.1-0.4c-0.6-0.5-1.2-1.1-1.6-1.7c-0.4,0.3-0.7,0.6-0.7,1.1C212.8,70.4,213.3,70.8,214,70.8z M213.8,67.4
			c0.6-0.4,1-0.7,1-1.2c0-0.4-0.2-0.6-0.6-0.6c-0.4,0-0.7,0.4-0.7,0.9C213.5,66.7,213.6,67,213.8,67.4z"/>
		<path class="st2" d="M221,64.8h2.3c1.5,0,2.6,0.5,2.6,2.1c0,1.5-1.1,2.2-2.6,2.2h-1.1v2.5H221V64.8z M223.2,68.1
			c1,0,1.5-0.4,1.5-1.2c0-0.9-0.5-1.1-1.5-1.1h-1v2.4H223.2z"/>
		<path class="st2" d="M227,64.3h1.2v6.1c0,0.3,0.1,0.4,0.3,0.4c0.1,0,0.1,0,0.2,0l0.2,0.9c-0.1,0.1-0.4,0.1-0.6,0.1
			c-0.9,0-1.2-0.6-1.2-1.4V64.3z"/>
		<path class="st2" d="M232.7,68.3c0-0.5-0.2-1-0.9-1c-0.5,0-1,0.2-1.4,0.5l-0.4-0.8c0.6-0.4,1.3-0.7,2.1-0.7c1.3,0,1.9,0.8,1.9,2.2
			v3h-1l-0.1-0.6h0c-0.5,0.4-1,0.7-1.6,0.7c-0.9,0-1.5-0.6-1.5-1.5C229.6,69.1,230.6,68.6,232.7,68.3z M231.5,70.8
			c0.4,0,0.7-0.2,1.1-0.6v-1.1c-1.4,0.2-1.8,0.5-1.8,1.1C230.8,70.6,231.1,70.8,231.5,70.8z"/>
		<path class="st2" d="M235.3,66.5h1l0.1,0.7h0c0.5-0.4,1-0.8,1.7-0.8c1.1,0,1.6,0.7,1.6,2v3.2h-1.2v-3c0-0.8-0.2-1.2-0.8-1.2
			c-0.4,0-0.7,0.2-1.2,0.6v3.6h-1.2V66.5z"/>
		<path class="st2" d="M241.1,66.5h1l0.1,0.7h0c0.5-0.4,1-0.8,1.7-0.8c1.1,0,1.6,0.7,1.6,2v3.2h-1.2v-3c0-0.8-0.2-1.2-0.8-1.2
			c-0.4,0-0.7,0.2-1.2,0.6v3.6h-1.2V66.5z"/>
		<path class="st2" d="M249,66.4c1.4,0,2.1,1,2.1,2.4c0,0.2,0,0.4-0.1,0.6h-3.2c0.1,0.9,0.7,1.4,1.5,1.4c0.4,0,0.8-0.1,1.2-0.4
			l0.4,0.7c-0.5,0.3-1.1,0.6-1.7,0.6c-1.4,0-2.5-1-2.5-2.7C246.6,67.4,247.8,66.4,249,66.4z M250.1,68.6c0-0.8-0.3-1.3-1-1.3
			c-0.6,0-1.1,0.4-1.2,1.3H250.1z"/>
		<path class="st2" d="M252.2,66.5h1l0.1,0.9h0c0.4-0.7,0.9-1,1.4-1c0.3,0,0.4,0,0.6,0.1l-0.2,1c-0.2-0.1-0.3-0.1-0.5-0.1
			c-0.4,0-0.9,0.3-1.2,1.1v3.1h-1.2V66.5z"/>
		<path class="st2" d="M256.1,70.3c0.5,0.4,0.9,0.6,1.4,0.6c0.6,0,0.8-0.3,0.8-0.6c0-0.4-0.6-0.6-1.1-0.8c-0.7-0.2-1.4-0.6-1.4-1.5
			c0-0.9,0.7-1.5,1.9-1.5c0.7,0,1.3,0.3,1.7,0.6l-0.6,0.7c-0.4-0.3-0.7-0.4-1.1-0.4c-0.5,0-0.7,0.2-0.7,0.6c0,0.4,0.5,0.6,1.1,0.8
			c0.7,0.3,1.5,0.6,1.5,1.6c0,0.9-0.7,1.6-2,1.6c-0.7,0-1.4-0.3-1.9-0.7L256.1,70.3z"/>
	</g>
	<line class="st3" x1="80.2" y1="59.8" x2="269.3" y2="59.8"/>
</g>
</svg>
